<svg width="96" height="97" viewBox="0 0 96 97" fill="none" xmlns="http://www.w3.org/2000/svg">
<path d="M46.0716 54.1671L41.1118 65.4645L24.1382 26.5575H34.0027L46.0716 54.1671Z" fill="#0868F6"/>
<path d="M71.9171 26.5575L52.2431 71.747L52.188 71.8021C51.9676 72.3531 51.6369 72.794 51.2512 73.1798C51.1961 73.2349 51.1961 73.2349 51.1409 73.29C51.0307 73.4002 50.8654 73.5104 50.7552 73.6206C50.7001 73.6758 50.5899 73.7309 50.5347 73.786C50.0388 74.1166 49.4877 74.3371 48.9366 74.4473C48.8815 74.4473 48.8264 74.4473 48.7713 74.5024C48.661 74.5024 48.4957 74.5575 48.3855 74.5575C48.3304 74.5575 48.2753 74.5575 48.2753 74.5575C48.2202 74.5575 48.1651 74.5575 48.11 74.5575C47.9997 74.5575 47.9446 74.5575 47.8344 74.5575C47.7242 74.5575 47.614 74.5575 47.5037 74.5024C47.4486 74.5024 47.3935 74.5024 47.3384 74.5024C47.2833 74.5024 47.1731 74.5024 47.118 74.4473C47.0629 74.4473 47.0629 74.4473 47.0078 74.4473C46.9527 74.4473 46.8975 74.3922 46.8424 74.3922C46.7873 74.3922 46.7322 74.3371 46.6771 74.3371C46.622 74.3371 46.622 74.3371 46.5669 74.282C46.5118 74.282 46.5118 74.282 46.4567 74.2269C46.4016 74.2269 46.3465 74.1717 46.2913 74.1717C46.2913 74.1717 46.2913 74.1717 46.2362 74.1717C46.1811 74.1717 46.126 74.1166 46.0709 74.1166C43.8665 73.0696 42.9297 70.4794 43.8665 68.22L61.9974 26.5575H71.9171Z" fill="#0868F6"/>
<path d="M48 3.2462C59.9587 3.2462 71.256 7.93047 79.7428 16.3622C88.2296 24.7938 92.8588 36.0912 92.8588 48.105C92.8588 60.0637 88.1745 71.361 79.7428 79.8478C71.256 88.3346 60.0138 92.9638 48 92.9638C35.9862 92.9638 24.744 88.2795 16.2572 79.8478C7.82549 71.361 3.14122 60.0637 3.14122 48.105C3.14122 36.1463 7.82549 24.849 16.2572 16.3622C24.6889 7.87536 36.0413 3.2462 48 3.2462ZM48 0.10498C21.4925 0.10498 0 21.5975 0 48.105C0 74.6125 21.4925 96.105 48 96.105C74.5075 96.105 96 74.6125 96 48.105C96 21.5975 74.5075 0.10498 48 0.10498Z" fill="#0868F6"/>
</svg>
